<svg width="13" height="13" viewBox="0 0 13 13" fill="none" xmlns="http://www.w3.org/2000/svg">
<path fill-rule="evenodd" clip-rule="evenodd" d="M6.5 0C2.91038 0 0 2.90983 0 6.5C0 9.25383 1.71329 11.6058 4.13129 12.5526C4.07442 12.0385 4.02296 11.2499 4.15404 10.6887C4.27213 10.1812 4.91617 7.45767 4.91617 7.45767C4.91617 7.45767 4.72171 7.06821 4.72171 6.49242C4.72171 5.58892 5.2455 4.914 5.89767 4.914C6.45179 4.914 6.71992 5.33054 6.71992 5.82942C6.71992 6.38679 6.36513 7.22042 6.1815 7.99338C6.02821 8.64013 6.50596 9.16825 7.14404 9.16825C8.29942 9.16825 9.18721 7.95004 9.18721 6.19179C9.18721 4.63558 8.06921 3.54738 6.47238 3.54738C4.62313 3.54738 3.53763 4.93458 3.53763 6.36783C3.53763 6.92629 3.75267 7.52592 4.02133 7.85092C4.07442 7.91538 4.082 7.97225 4.06629 8.03779L3.88592 8.77446C3.85721 8.89363 3.79167 8.91908 3.66817 8.86167C2.85621 8.48358 2.34867 7.29679 2.34867 6.34346C2.34867 4.29325 3.83825 2.40988 6.64354 2.40988C8.8985 2.40988 10.6508 4.017 10.6508 6.16417C10.6508 8.4045 9.23867 10.2072 7.27783 10.2072C6.61917 10.2072 6.00004 9.86538 5.78825 9.46075L5.38308 11.0061C5.23629 11.5711 4.84033 12.279 4.57492 12.7102C5.18375 12.8982 5.82996 13 6.5 13C10.0896 13 13 10.0896 13 6.5C13 2.90983 10.0896 0 6.5 0V0Z" fill="#7C6650"/>
</svg>
